<!-- Font Awesome Free 6 (CC BY 4.0) --><svg class="icon" viewBox="-0 -6 496 496" aria-hidden="true" focusable="false"><path d="M166 389Q165 393 161 393Q155 393 155 389Q156 386 160 386Q165 386 166 389ZM135 385Q134 388 139 390Q144 391 145 388Q146 384 141 383Q136 382 135 385ZM179 383Q174 384 174 388Q175 391 180 391Q185 389 185 386Q184 383 179 383ZM245 0Q138 2 70 70Q2 138 0 244Q1 329 47 393Q93 457 170 483Q188 484 187 471Q187 467 187 456Q187 433 187 410Q185 410 168 412Q150 413 130 408Q110 402 102 380Q102 378 94 364Q86 351 74 343Q72 342 66 335Q59 329 76 328Q77 327 90 332Q103 336 114 354Q132 381 153 381Q175 381 187 375Q191 351 203 341Q159 339 126 319Q93 300 91 230Q91 210 97 197Q102 184 114 172Q112 166 110 148Q108 130 117 104Q135 101 159 115Q184 128 186 131Q186 131 186 131Q216 122 249 122Q281 122 312 131Q312 130 325 122Q337 114 353 108Q369 101 381 104Q390 130 388 148Q386 166 383 172Q395 184 402 197Q409 210 409 230Q408 278 392 301Q375 323 349 331Q323 339 294 341Q310 352 311 387Q311 424 311 453Q311 466 311 471Q310 484 328 483Q404 457 450 393Q495 329 496 244Q495 174 462 119Q428 64 372 32Q315 1 245 0ZM97 345Q95 347 98 350Q101 353 103 351Q105 349 102 346Q100 343 97 345ZM86 337Q86 339 89 341Q92 342 93 340Q94 338 91 336Q88 335 86 337ZM119 372Q117 375 120 379Q124 382 127 380Q128 377 125 373Q121 370 119 372ZM107 358Q105 360 107 364Q110 367 113 366Q115 364 113 360Q110 356 107 358Z"/></svg>